<svg width="1600" height="1100" viewBox="0 0 1600 1100" fill="none" xmlns="http://www.w3.org/2000/svg">
  <defs>
    <linearGradient id="bg" x1="172" y1="112" x2="1466" y2="1012" gradientUnits="userSpaceOnUse">
      <stop stop-color="#061A12" />
      <stop offset="0.55" stop-color="#09261C" />
      <stop offset="1" stop-color="#04130D" />
    </linearGradient>
    <linearGradient id="panel" x1="806" y1="152" x2="806" y2="930" gradientUnits="userSpaceOnUse">
      <stop stop-color="#133528" />
      <stop offset="1" stop-color="#081D16" />
    </linearGradient>
    <linearGradient id="accent" x1="368" y1="276" x2="1240" y2="748" gradientUnits="userSpaceOnUse">
      <stop stop-color="#5AF0B6" />
      <stop offset="0.56" stop-color="#35DA9E" />
      <stop offset="1" stop-color="#A6E861" />
    </linearGradient>
    <filter id="glow" x="-20%" y="-20%" width="140%" height="140%">
      <feGaussianBlur stdDeviation="30" />
    </filter>
    <filter id="soft">
      <feDropShadow dx="0" dy="18" stdDeviation="30" flood-color="#000000" flood-opacity="0.3" />
    </filter>
    <filter id="grain">
      <feTurbulence type="fractalNoise" baseFrequency="0.8" numOctaves="2" stitchTiles="stitch" />
      <feColorMatrix type="saturate" values="0" />
      <feComponentTransfer>
        <feFuncA type="table" tableValues="0 0.05" />
      </feComponentTransfer>
    </filter>
  </defs>

  <rect width="1600" height="1100" rx="78" fill="url(#bg)" />
  <ellipse cx="330" cy="190" rx="286" ry="194" fill="#55E4A8" fill-opacity="0.16" filter="url(#glow)" />
  <ellipse cx="1288" cy="230" rx="284" ry="178" fill="#16CBA6" fill-opacity="0.12" filter="url(#glow)" />
  <ellipse cx="1078" cy="884" rx="388" ry="178" fill="#97E75E" fill-opacity="0.1" filter="url(#glow)" />

  <g opacity="0.28">
    <path d="M108 238H1494" stroke="#84E7B8" stroke-opacity="0.12" />
    <path d="M108 366H1494" stroke="#84E7B8" stroke-opacity="0.12" />
    <path d="M108 494H1494" stroke="#84E7B8" stroke-opacity="0.12" />
    <path d="M108 622H1494" stroke="#84E7B8" stroke-opacity="0.12" />
    <path d="M108 750H1494" stroke="#84E7B8" stroke-opacity="0.12" />
    <path d="M276 102V998" stroke="#84E7B8" stroke-opacity="0.08" />
    <path d="M516 102V998" stroke="#84E7B8" stroke-opacity="0.08" />
    <path d="M756 102V998" stroke="#84E7B8" stroke-opacity="0.08" />
    <path d="M996 102V998" stroke="#84E7B8" stroke-opacity="0.08" />
    <path d="M1236 102V998" stroke="#84E7B8" stroke-opacity="0.08" />
  </g>

  <g filter="url(#soft)" transform="rotate(-3 804 552)">
    <rect x="208" y="152" width="1196" height="776" rx="44" fill="url(#panel)" stroke="rgba(97, 233, 171, 0.18)" stroke-width="2" />
    <rect x="208" y="152" width="1196" height="76" rx="44" fill="rgba(18, 48, 36, 0.94)" />
    <circle cx="268" cy="190" r="8" fill="#D8FFF1" fill-opacity="0.34" />
    <circle cx="300" cy="190" r="8" fill="#D8FFF1" fill-opacity="0.22" />
    <circle cx="332" cy="190" r="8" fill="#D8FFF1" fill-opacity="0.12" />
    <rect x="1110" y="176" width="220" height="26" rx="13" fill="#E9FFF6" fill-opacity="0.08" />

    <rect x="270" y="264" width="252" height="546" rx="34" fill="rgba(11, 29, 22, 0.94)" stroke="rgba(97, 233, 171, 0.12)" />
    <rect x="312" y="312" width="110" height="18" rx="9" fill="#EFFFF7" fill-opacity="0.14" />
    <rect x="312" y="360" width="166" height="14" rx="7" fill="#EFFFF7" fill-opacity="0.1" />
    <rect x="312" y="398" width="144" height="14" rx="7" fill="#EFFFF7" fill-opacity="0.1" />
    <rect x="312" y="456" width="168" height="124" rx="24" fill="rgba(29, 108, 181, 0.08)" stroke="rgba(29, 108, 181, 0.18)" />
    <rect x="338" y="492" width="116" height="12" rx="6" fill="#EFFFF7" fill-opacity="0.14" />
    <rect x="338" y="516" width="92" height="12" rx="6" fill="#EFFFF7" fill-opacity="0.1" />
    <rect x="312" y="612" width="126" height="14" rx="7" fill="#71F5B8" fill-opacity="0.2" />
    <rect x="312" y="654" width="176" height="110" rx="24" fill="rgba(23, 188, 167, 0.08)" stroke="rgba(23, 188, 167, 0.18)" />
    <rect x="338" y="690" width="98" height="12" rx="6" fill="#EFFFF7" fill-opacity="0.14" />
    <rect x="338" y="714" width="134" height="12" rx="6" fill="#EFFFF7" fill-opacity="0.1" />

    <rect x="562" y="264" width="576" height="222" rx="34" fill="rgba(11, 29, 22, 0.94)" stroke="rgba(97, 233, 171, 0.12)" />
    <rect x="606" y="306" width="154" height="18" rx="9" fill="#EFFFF7" fill-opacity="0.14" />
    <path d="M630 408L720 356L808 394L906 326L1012 376L1090 340" stroke="url(#accent)" stroke-width="12" stroke-linecap="round" stroke-linejoin="round" />
    <circle cx="630" cy="408" r="12" fill="#5AF0B6" />
    <circle cx="720" cy="356" r="12" fill="#49E5A8" />
    <circle cx="808" cy="394" r="12" fill="#39D79E" />
    <circle cx="906" cy="326" r="12" fill="#35DA9E" />
    <circle cx="1012" cy="376" r="12" fill="#67E0A0" />
    <circle cx="1090" cy="340" r="12" fill="#A6E861" />

    <rect x="562" y="526" width="576" height="284" rx="34" fill="rgba(11, 29, 22, 0.94)" stroke="rgba(97, 233, 171, 0.12)" />
    <rect x="606" y="568" width="148" height="18" rx="9" fill="#EFFFF7" fill-opacity="0.14" />
    <rect x="606" y="620" width="144" height="124" rx="24" fill="rgba(29, 108, 181, 0.08)" stroke="rgba(29, 108, 181, 0.18)" />
    <rect x="778" y="620" width="144" height="124" rx="24" fill="rgba(23, 188, 167, 0.08)" stroke="rgba(23, 188, 167, 0.18)" />
    <rect x="950" y="620" width="144" height="124" rx="24" fill="rgba(163, 229, 96, 0.08)" stroke="rgba(163, 229, 96, 0.18)" />
    <rect x="632" y="660" width="86" height="12" rx="6" fill="#EFFFF7" fill-opacity="0.14" />
    <rect x="804" y="660" width="88" height="12" rx="6" fill="#EFFFF7" fill-opacity="0.14" />
    <rect x="976" y="660" width="92" height="12" rx="6" fill="#EFFFF7" fill-opacity="0.14" />
    <rect x="632" y="688" width="60" height="10" rx="5" fill="#EFFFF7" fill-opacity="0.1" />
    <rect x="804" y="688" width="72" height="10" rx="5" fill="#EFFFF7" fill-opacity="0.1" />
    <rect x="976" y="688" width="76" height="10" rx="5" fill="#EFFFF7" fill-opacity="0.1" />

    <rect x="1180" y="264" width="156" height="546" rx="34" fill="rgba(11, 29, 22, 0.94)" stroke="rgba(97, 233, 171, 0.12)" />
    <circle cx="1258" cy="354" r="60" fill="url(#accent)" fill-opacity="0.92" />
    <circle cx="1258" cy="354" r="92" fill="url(#accent)" fill-opacity="0.12" filter="url(#glow)" />
    <path d="M1232 356L1250 374L1292 326" stroke="#072218" stroke-width="18" stroke-linecap="round" stroke-linejoin="round" />
    <rect x="1210" y="462" width="92" height="12" rx="6" fill="#EFFFF7" fill-opacity="0.14" />
    <rect x="1210" y="490" width="110" height="10" rx="5" fill="#EFFFF7" fill-opacity="0.1" />
    <path d="M1216 592H1302" stroke="url(#accent)" stroke-width="10" stroke-linecap="round" />
    <path d="M1216 632H1270" stroke="url(#accent)" stroke-width="10" stroke-linecap="round" opacity="0.72" />
    <path d="M1216 672H1296" stroke="url(#accent)" stroke-width="10" stroke-linecap="round" opacity="0.58" />
  </g>

  <rect width="1600" height="1100" rx="78" fill="#FFFFFF" filter="url(#grain)" opacity="0.1" />
</svg>
