<svg width="1600" height="1100" viewBox="0 0 1600 1100" fill="none" xmlns="http://www.w3.org/2000/svg">
  <defs>
    <linearGradient id="bg" x1="172" y1="98" x2="1446" y2="1038" gradientUnits="userSpaceOnUse">
      <stop stop-color="#061811" />
      <stop offset="0.58" stop-color="#08231A" />
      <stop offset="1" stop-color="#04120D" />
    </linearGradient>
    <linearGradient id="accent" x1="448" y1="324" x2="1122" y2="786" gradientUnits="userSpaceOnUse">
      <stop stop-color="#58F0B5" />
      <stop offset="0.54" stop-color="#35DA9E" />
      <stop offset="1" stop-color="#A5E860" />
    </linearGradient>
    <filter id="glow" x="-20%" y="-20%" width="140%" height="140%">
      <feGaussianBlur stdDeviation="28" />
    </filter>
    <filter id="soft">
      <feDropShadow dx="0" dy="18" stdDeviation="30" flood-color="#000000" flood-opacity="0.28" />
    </filter>
    <filter id="grain">
      <feTurbulence type="fractalNoise" baseFrequency="0.82" numOctaves="2" stitchTiles="stitch" />
      <feColorMatrix type="saturate" values="0" />
      <feComponentTransfer>
        <feFuncA type="table" tableValues="0 0.05" />
      </feComponentTransfer>
    </filter>
  </defs>

  <rect width="1600" height="1100" rx="78" fill="url(#bg)" />
  <ellipse cx="368" cy="188" rx="300" ry="188" fill="#55E4A8" fill-opacity="0.16" filter="url(#glow)" />
  <ellipse cx="1264" cy="224" rx="288" ry="178" fill="#20CAA4" fill-opacity="0.11" filter="url(#glow)" />
  <ellipse cx="1046" cy="874" rx="392" ry="186" fill="#98E55F" fill-opacity="0.1" filter="url(#glow)" />

  <g filter="url(#soft)">
    <rect x="208" y="734" width="1184" height="184" rx="54" fill="rgba(14, 36, 27, 0.86)" stroke="rgba(97, 233, 171, 0.14)" stroke-width="2" />
    <rect x="350" y="258" width="594" height="370" rx="42" transform="rotate(-5 350 258)" fill="rgba(14, 37, 27, 0.94)" stroke="rgba(97, 233, 171, 0.16)" stroke-width="2" />
    <rect x="446" y="232" width="592" height="388" rx="42" transform="rotate(4 446 232)" fill="rgba(11, 29, 22, 0.94)" stroke="rgba(97, 233, 171, 0.14)" stroke-width="2" />
    <rect x="1036" y="312" width="238" height="288" rx="34" fill="rgba(11, 29, 22, 0.94)" stroke="rgba(97, 233, 171, 0.14)" />
    <rect x="1112" y="572" width="244" height="132" rx="30" transform="rotate(8 1112 572)" fill="rgba(13, 34, 25, 0.94)" stroke="rgba(97, 233, 171, 0.14)" />

    <rect x="518" y="300" width="236" height="22" rx="11" transform="rotate(4 518 300)" fill="#EFFFF7" fill-opacity="0.16" />
    <rect x="520" y="352" width="304" height="18" rx="9" transform="rotate(4 520 352)" fill="#EFFFF7" fill-opacity="0.1" />
    <rect x="520" y="388" width="286" height="18" rx="9" transform="rotate(4 520 388)" fill="#EFFFF7" fill-opacity="0.1" />
    <rect x="520" y="424" width="264" height="18" rx="9" transform="rotate(4 520 424)" fill="#EFFFF7" fill-opacity="0.1" />
    <rect x="520" y="476" width="188" height="16" rx="8" transform="rotate(4 520 476)" fill="#76F4B7" fill-opacity="0.22" />

    <circle cx="1130" cy="416" r="62" fill="url(#accent)" fill-opacity="0.92" />
    <circle cx="1130" cy="416" r="104" fill="url(#accent)" fill-opacity="0.14" filter="url(#glow)" />
    <path d="M1104 418L1124 438L1166 390" stroke="#072218" stroke-width="18" stroke-linecap="round" stroke-linejoin="round" />
    <rect x="1072" y="510" width="104" height="12" rx="6" fill="#EFFFF7" fill-opacity="0.14" />
    <rect x="1072" y="536" width="138" height="10" rx="5" fill="#EFFFF7" fill-opacity="0.1" />

    <rect x="1140" y="624" width="112" height="12" rx="6" transform="rotate(8 1140 624)" fill="#EFFFF7" fill-opacity="0.14" />
    <rect x="1140" y="650" width="88" height="10" rx="5" transform="rotate(8 1140 650)" fill="#EFFFF7" fill-opacity="0.1" />

    <path d="M956 678C1020 654 1086 650 1148 666" stroke="url(#accent)" stroke-width="6" stroke-linecap="round" />
    <circle cx="958" cy="678" r="12" fill="#58F0B5" />
    <circle cx="1148" cy="666" r="12" fill="#A5E860" />

    <path d="M318 796C392 752 476 734 574 742" stroke="url(#accent)" stroke-width="7" stroke-linecap="round" opacity="0.74" />
    <path d="M986 798C1058 748 1138 728 1244 742" stroke="url(#accent)" stroke-width="7" stroke-linecap="round" opacity="0.66" />
    <circle cx="636" cy="816" r="16" fill="#58F0B5" fill-opacity="0.82" />
    <circle cx="904" cy="814" r="12" fill="#23CBA2" fill-opacity="0.78" />
  </g>

  <rect width="1600" height="1100" rx="78" fill="#FFFFFF" filter="url(#grain)" opacity="0.1" />
</svg>
