<svg xmlns="http://www.w3.org/2000/svg" viewBox="0 0 420 90" fill="none">
  <defs>
    <linearGradient id="wordmarkGradient" x1="15" y1="12" x2="76" y2="73" gradientUnits="userSpaceOnUse">
      <stop stop-color="#7BF0B2" />
      <stop offset="1" stop-color="#2CCF9A" />
    </linearGradient>
  </defs>
  <rect x="6" y="11" width="60" height="60" rx="18" fill="#071611" />
  <rect x="6.5" y="11.5" width="59" height="59" rx="17.5" stroke="rgba(123, 240, 178, 0.24)" />
  <path
    d="M21 27.5C21 24.4624 23.4624 22 26.5 22H35.5C38.2614 22 40.5 24.2386 40.5 27V28.5C40.5 31.2614 38.2614 33.5 35.5 33.5H28.5C26.567 33.5 25 35.067 25 37C25 38.933 26.567 40.5 28.5 40.5H38.5C41.5376 40.5 44 42.9624 44 46C44 49.0376 41.5376 51.5 38.5 51.5H26.5C23.4624 51.5 21 49.0376 21 46"
    stroke="url(#wordmarkGradient)"
    stroke-width="5"
    stroke-linecap="round"
    stroke-linejoin="round"
  />
  <path
    d="M42.5 24.5L50.5 32.5L42.5 40.5"
    stroke="#EFFEF4"
    stroke-width="4"
    stroke-linecap="round"
    stroke-linejoin="round"
  />
  <text
    x="84"
    y="39"
    fill="#EFFEF4"
    font-family="Geist, Arial, sans-serif"
    font-size="26"
    font-weight="700"
    letter-spacing="-0.04em"
  >
    Career Workbench
  </text>
  <text
    x="84"
    y="60"
    fill="#9AD0B8"
    font-family="Geist, Arial, sans-serif"
    font-size="12"
    font-weight="600"
    letter-spacing="0.12em"
  >
    FOCUSED JOB SEARCH WORKFLOW
  </text>
</svg>
