<svg width="1920" height="1280" viewBox="0 0 1920 1280" fill="none" xmlns="http://www.w3.org/2000/svg">
  <rect width="1920" height="1280" fill="#0D1016"/>
  <g opacity="0.5" filter="url(#a)">
    <ellipse cx="1540" cy="1080" rx="320" ry="210" fill="#8B5CF6"/>
  </g>
  <rect x="118" y="116" width="1684" height="1048" rx="42" fill="#11151D" stroke="#272D3C" stroke-width="2"/>
  <rect x="118" y="116" width="1684" height="72" rx="42" fill="#151A24"/>
  <circle cx="176" cy="152" r="7" fill="#5F6572"/>
  <circle cx="204" cy="152" r="7" fill="#5F6572"/>
  <circle cx="232" cy="152" r="7" fill="#5F6572"/>
  <rect x="202" y="250" width="504" height="826" rx="30" fill="#0E131B" stroke="#23293A" stroke-width="2"/>
  <rect x="760" y="250" width="470" height="826" rx="30" fill="#0E131B" stroke="#23293A" stroke-width="2"/>
  <rect x="1284" y="250" width="434" height="826" rx="30" fill="#0E131B" stroke="#23293A" stroke-width="2"/>
  <rect x="266" y="320" width="210" height="16" rx="8" fill="#FAF8FF"/>
  <rect x="266" y="364" width="164" height="12" rx="6" fill="#7B8395"/>
  <rect x="266" y="436" width="378" height="224" rx="24" fill="#141A28"/>
  <rect x="308" y="478" width="294" height="24" rx="12" fill="#23293A"/>
  <rect x="308" y="478" width="202" height="24" rx="12" fill="#8B5CF6"/>
  <rect x="308" y="534" width="294" height="24" rx="12" fill="#23293A"/>
  <rect x="308" y="534" width="176" height="24" rx="12" fill="#B596FF"/>
  <rect x="308" y="590" width="294" height="24" rx="12" fill="#23293A"/>
  <rect x="308" y="590" width="248" height="24" rx="12" fill="#6D4AD5"/>
  <rect x="266" y="726" width="378" height="286" rx="24" fill="#141A28"/>
  <rect x="806" y="320" width="188" height="16" rx="8" fill="#FAF8FF"/>
  <rect x="806" y="364" width="152" height="12" rx="6" fill="#7B8395"/>
  <rect x="806" y="430" width="378" height="286" rx="24" fill="#141A28"/>
  <path d="M858 644L922 568L990 596L1084 492L1138 516" stroke="#B596FF" stroke-width="10" stroke-linecap="round" stroke-linejoin="round"/>
  <circle cx="1138" cy="516" r="14" fill="#8B5CF6"/>
  <rect x="806" y="772" width="378" height="240" rx="24" fill="#141A28"/>
  <rect x="1336" y="320" width="188" height="16" rx="8" fill="#FAF8FF"/>
  <rect x="1336" y="364" width="152" height="12" rx="6" fill="#7B8395"/>
  <rect x="1336" y="430" width="330" height="582" rx="24" fill="#141A28"/>
  <rect x="1378" y="480" width="246" height="20" rx="10" fill="#23293A"/>
  <rect x="1378" y="480" width="164" height="20" rx="10" fill="#8B5CF6"/>
  <rect x="1378" y="530" width="222" height="16" rx="8" fill="#858EA2"/>
  <rect x="1378" y="572" width="190" height="16" rx="8" fill="#858EA2"/>
  <rect x="1378" y="644" width="246" height="20" rx="10" fill="#23293A"/>
  <rect x="1378" y="644" width="194" height="20" rx="10" fill="#B596FF"/>
  <rect x="1378" y="694" width="246" height="20" rx="10" fill="#23293A"/>
  <rect x="1378" y="694" width="214" height="20" rx="10" fill="#6D4AD5"/>
  <defs>
    <filter id="a" x="920" y="570" width="1240" height="1020" filterUnits="userSpaceOnUse" color-interpolation-filters="sRGB">
      <feGaussianBlur stdDeviation="150"/>
    </filter>
  </defs>
</svg>
