<svg width="1600" height="1100" viewBox="0 0 1600 1100" fill="none" xmlns="http://www.w3.org/2000/svg">
  <defs>
    <linearGradient id="bg" x1="184" y1="98" x2="1432" y2="1032" gradientUnits="userSpaceOnUse">
      <stop stop-color="#061912" />
      <stop offset="0.58" stop-color="#08251C" />
      <stop offset="1" stop-color="#04110D" />
    </linearGradient>
    <linearGradient id="panel" x1="800" y1="146" x2="800" y2="930" gradientUnits="userSpaceOnUse">
      <stop stop-color="#143629" />
      <stop offset="1" stop-color="#081D16" />
    </linearGradient>
    <linearGradient id="accent" x1="318" y1="242" x2="1262" y2="830" gradientUnits="userSpaceOnUse">
      <stop stop-color="#5CF0BA" />
      <stop offset="0.54" stop-color="#32D99E" />
      <stop offset="1" stop-color="#A8E85F" />
    </linearGradient>
    <filter id="glow" x="-20%" y="-20%" width="140%" height="140%">
      <feGaussianBlur stdDeviation="30" />
    </filter>
    <filter id="soft">
      <feDropShadow dx="0" dy="18" stdDeviation="30" flood-color="#000000" flood-opacity="0.32" />
    </filter>
    <filter id="grain">
      <feTurbulence type="fractalNoise" baseFrequency="0.84" numOctaves="2" stitchTiles="stitch" />
      <feColorMatrix type="saturate" values="0" />
      <feComponentTransfer>
        <feFuncA type="table" tableValues="0 0.05" />
      </feComponentTransfer>
    </filter>
  </defs>

  <rect width="1600" height="1100" rx="78" fill="url(#bg)" />
  <ellipse cx="356" cy="178" rx="290" ry="186" fill="#57E5A9" fill-opacity="0.16" filter="url(#glow)" />
  <ellipse cx="1268" cy="212" rx="270" ry="176" fill="#1FC8A6" fill-opacity="0.12" filter="url(#glow)" />
  <ellipse cx="1050" cy="872" rx="380" ry="192" fill="#98E65C" fill-opacity="0.11" filter="url(#glow)" />

  <g filter="url(#soft)" transform="rotate(-2 800 554)">
    <rect x="202" y="148" width="1196" height="784" rx="44" fill="url(#panel)" stroke="rgba(97, 233, 171, 0.18)" stroke-width="2" />
    <rect x="202" y="148" width="1196" height="76" rx="44" fill="rgba(18, 48, 36, 0.94)" />
    <circle cx="262" cy="186" r="8" fill="#D9FFF2" fill-opacity="0.34" />
    <circle cx="294" cy="186" r="8" fill="#D9FFF2" fill-opacity="0.22" />
    <circle cx="326" cy="186" r="8" fill="#D9FFF2" fill-opacity="0.12" />
    <rect x="1110" y="174" width="220" height="26" rx="13" fill="#E9FFF6" fill-opacity="0.08" />

    <circle cx="800" cy="524" r="164" fill="rgba(13, 37, 27, 0.92)" stroke="rgba(97, 233, 171, 0.18)" />
    <circle cx="800" cy="524" r="94" fill="url(#accent)" fill-opacity="0.92" />
    <circle cx="800" cy="524" r="136" fill="url(#accent)" fill-opacity="0.14" filter="url(#glow)" />
    <path d="M760 526L790 556L854 480" stroke="#082218" stroke-width="24" stroke-linecap="round" stroke-linejoin="round" />

    <path d="M800 360V280" stroke="url(#accent)" stroke-width="6" stroke-linecap="round" stroke-opacity="0.72" />
    <path d="M686 406L610 354" stroke="url(#accent)" stroke-width="6" stroke-linecap="round" stroke-opacity="0.72" />
    <path d="M914 406L992 354" stroke="url(#accent)" stroke-width="6" stroke-linecap="round" stroke-opacity="0.72" />
    <path d="M682 646L602 706" stroke="url(#accent)" stroke-width="6" stroke-linecap="round" stroke-opacity="0.72" />
    <path d="M918 646L998 706" stroke="url(#accent)" stroke-width="6" stroke-linecap="round" stroke-opacity="0.72" />
    <path d="M800 690V772" stroke="url(#accent)" stroke-width="6" stroke-linecap="round" stroke-opacity="0.72" />

    <g>
      <rect x="716" y="216" width="168" height="110" rx="28" fill="rgba(11, 29, 22, 0.94)" stroke="rgba(97, 233, 171, 0.14)" />
      <circle cx="760" cy="262" r="18" fill="#4EF0A9" fill-opacity="0.86" />
      <rect x="792" y="248" width="64" height="12" rx="6" fill="#EFFFF7" fill-opacity="0.14" />
      <rect x="792" y="272" width="48" height="10" rx="5" fill="#EFFFF7" fill-opacity="0.1" />
    </g>
    <g>
      <rect x="496" y="274" width="178" height="112" rx="28" fill="rgba(11, 29, 22, 0.94)" stroke="rgba(97, 233, 171, 0.14)" />
      <circle cx="542" cy="320" r="18" fill="#22CDA2" fill-opacity="0.82" />
      <rect x="576" y="306" width="70" height="12" rx="6" fill="#EFFFF7" fill-opacity="0.14" />
      <rect x="576" y="330" width="58" height="10" rx="5" fill="#EFFFF7" fill-opacity="0.1" />
    </g>
    <g>
      <rect x="934" y="274" width="178" height="112" rx="28" fill="rgba(11, 29, 22, 0.94)" stroke="rgba(97, 233, 171, 0.14)" />
      <circle cx="980" cy="320" r="18" fill="#A8E85F" fill-opacity="0.86" />
      <rect x="1014" y="306" width="70" height="12" rx="6" fill="#EFFFF7" fill-opacity="0.14" />
      <rect x="1014" y="330" width="58" height="10" rx="5" fill="#EFFFF7" fill-opacity="0.1" />
    </g>
    <g>
      <rect x="490" y="690" width="188" height="116" rx="28" fill="rgba(11, 29, 22, 0.94)" stroke="rgba(97, 233, 171, 0.14)" />
      <circle cx="538" cy="738" r="18" fill="#14B8A6" fill-opacity="0.84" />
      <rect x="574" y="724" width="78" height="12" rx="6" fill="#EFFFF7" fill-opacity="0.14" />
      <rect x="574" y="748" width="70" height="10" rx="5" fill="#EFFFF7" fill-opacity="0.1" />
    </g>
    <g>
      <rect x="926" y="690" width="188" height="116" rx="28" fill="rgba(11, 29, 22, 0.94)" stroke="rgba(97, 233, 171, 0.14)" />
      <circle cx="974" cy="738" r="18" fill="#84CC16" fill-opacity="0.84" />
      <rect x="1010" y="724" width="78" height="12" rx="6" fill="#EFFFF7" fill-opacity="0.14" />
      <rect x="1010" y="748" width="68" height="10" rx="5" fill="#EFFFF7" fill-opacity="0.1" />
    </g>
    <g>
      <rect x="708" y="796" width="184" height="112" rx="28" fill="rgba(11, 29, 22, 0.94)" stroke="rgba(97, 233, 171, 0.14)" />
      <circle cx="754" cy="842" r="18" fill="#4CE6AA" fill-opacity="0.84" />
      <rect x="788" y="828" width="78" height="12" rx="6" fill="#EFFFF7" fill-opacity="0.14" />
      <rect x="788" y="852" width="72" height="10" rx="5" fill="#EFFFF7" fill-opacity="0.1" />
    </g>
  </g>

  <rect width="1600" height="1100" rx="78" fill="#FFFFFF" filter="url(#grain)" opacity="0.1" />
</svg>
