<svg width="1600" height="1100" viewBox="0 0 1600 1100" fill="none" xmlns="http://www.w3.org/2000/svg">
  <defs>
    <linearGradient id="bg" x1="150" y1="96" x2="1418" y2="1034" gradientUnits="userSpaceOnUse">
      <stop stop-color="#061912" />
      <stop offset="0.55" stop-color="#08241A" />
      <stop offset="1" stop-color="#04120D" />
    </linearGradient>
    <linearGradient id="panel" x1="801" y1="152" x2="801" y2="918" gradientUnits="userSpaceOnUse">
      <stop stop-color="rgba(20, 58, 44, 0.96)" />
      <stop offset="1" stop-color="rgba(7, 22, 17, 0.92)" />
    </linearGradient>
    <linearGradient id="line" x1="315" y1="300" x2="1188" y2="780" gradientUnits="userSpaceOnUse">
      <stop stop-color="#7CF6C2" stop-opacity="0.92" />
      <stop offset="0.5" stop-color="#39D39A" stop-opacity="0.84" />
      <stop offset="1" stop-color="#9DEB5B" stop-opacity="0.82" />
    </linearGradient>
    <linearGradient id="accent" x1="251" y1="271" x2="1307" y2="807" gradientUnits="userSpaceOnUse">
      <stop stop-color="#4BF0A8" />
      <stop offset="1" stop-color="#8FE55A" />
    </linearGradient>
    <filter id="glow" x="-20%" y="-20%" width="140%" height="140%">
      <feGaussianBlur stdDeviation="28" />
    </filter>
    <filter id="soft">
      <feDropShadow dx="0" dy="18" stdDeviation="28" flood-color="#000000" flood-opacity="0.28" />
    </filter>
    <filter id="grain">
      <feTurbulence type="fractalNoise" baseFrequency="0.85" numOctaves="2" stitchTiles="stitch" />
      <feColorMatrix type="saturate" values="0" />
      <feComponentTransfer>
        <feFuncA type="table" tableValues="0 0.045" />
      </feComponentTransfer>
    </filter>
  </defs>

  <rect width="1600" height="1100" rx="78" fill="url(#bg)" />
  <rect width="1600" height="1100" rx="78" fill="url(#bg)" />
  <ellipse cx="334" cy="204" rx="268" ry="188" fill="#49E7A2" fill-opacity="0.18" filter="url(#glow)" />
  <ellipse cx="1294" cy="152" rx="260" ry="164" fill="#22CDA2" fill-opacity="0.14" filter="url(#glow)" />
  <ellipse cx="1160" cy="872" rx="358" ry="186" fill="#91E15F" fill-opacity="0.12" filter="url(#glow)" />

  <g opacity="0.32">
    <path d="M102 234H1498" stroke="#8BE7B5" stroke-opacity="0.12" />
    <path d="M102 346H1498" stroke="#8BE7B5" stroke-opacity="0.12" />
    <path d="M102 458H1498" stroke="#8BE7B5" stroke-opacity="0.12" />
    <path d="M102 570H1498" stroke="#8BE7B5" stroke-opacity="0.12" />
    <path d="M102 682H1498" stroke="#8BE7B5" stroke-opacity="0.12" />
    <path d="M102 794H1498" stroke="#8BE7B5" stroke-opacity="0.12" />
    <path d="M250 102V998" stroke="#8BE7B5" stroke-opacity="0.08" />
    <path d="M482 102V998" stroke="#8BE7B5" stroke-opacity="0.08" />
    <path d="M714 102V998" stroke="#8BE7B5" stroke-opacity="0.08" />
    <path d="M946 102V998" stroke="#8BE7B5" stroke-opacity="0.08" />
    <path d="M1178 102V998" stroke="#8BE7B5" stroke-opacity="0.08" />
  </g>

  <g filter="url(#soft)" transform="rotate(-4 800 560)">
    <rect x="214" y="154" width="1172" height="750" rx="40" fill="url(#panel)" stroke="rgba(97, 233, 171, 0.18)" stroke-width="2" />
    <rect x="214" y="154" width="1172" height="74" rx="40" fill="rgba(18, 49, 37, 0.95)" />
    <circle cx="274" cy="191" r="8" fill="#D6FFF0" fill-opacity="0.34" />
    <circle cx="306" cy="191" r="8" fill="#D6FFF0" fill-opacity="0.22" />
    <circle cx="338" cy="191" r="8" fill="#D6FFF0" fill-opacity="0.12" />
    <rect x="1112" y="178" width="192" height="24" rx="12" fill="#E9FFF5" fill-opacity="0.08" />

    <rect x="270" y="264" width="350" height="410" rx="32" fill="rgba(12, 32, 24, 0.92)" stroke="rgba(97, 233, 171, 0.12)" />
    <rect x="308" y="308" width="164" height="24" rx="12" fill="#EFFFF7" fill-opacity="0.18" />
    <rect x="308" y="354" width="248" height="18" rx="9" fill="#EFFFF7" fill-opacity="0.1" />
    <rect x="308" y="388" width="214" height="18" rx="9" fill="#EFFFF7" fill-opacity="0.1" />
    <rect x="308" y="422" width="236" height="18" rx="9" fill="#EFFFF7" fill-opacity="0.1" />
    <rect x="308" y="466" width="274" height="88" rx="22" fill="rgba(29, 108, 181, 0.08)" stroke="rgba(29, 108, 181, 0.18)" />
    <rect x="334" y="496" width="114" height="12" rx="6" fill="#EFFFF7" fill-opacity="0.18" />
    <rect x="334" y="520" width="186" height="12" rx="6" fill="#EFFFF7" fill-opacity="0.1" />
    <rect x="308" y="584" width="208" height="14" rx="7" fill="#71F5B8" fill-opacity="0.22" />

    <rect x="668" y="246" width="430" height="292" rx="36" fill="rgba(11, 29, 22, 0.94)" stroke="rgba(97, 233, 171, 0.12)" />
    <circle cx="883" cy="389" r="94" fill="url(#accent)" fill-opacity="0.88" />
    <circle cx="883" cy="389" r="136" fill="url(#accent)" fill-opacity="0.1" filter="url(#glow)" />
    <path d="M842 390L872 420L934 346" stroke="#072218" stroke-width="24" stroke-linecap="round" stroke-linejoin="round" />
    <rect x="714" y="472" width="126" height="18" rx="9" fill="#EFFFF7" fill-opacity="0.16" />
    <rect x="850" y="472" width="94" height="18" rx="9" fill="#EFFFF7" fill-opacity="0.12" />
    <rect x="954" y="472" width="96" height="18" rx="9" fill="#EFFFF7" fill-opacity="0.12" />

    <rect x="1140" y="246" width="182" height="134" rx="28" fill="rgba(11, 29, 22, 0.92)" stroke="rgba(97, 233, 171, 0.12)" />
    <rect x="1170" y="282" width="92" height="14" rx="7" fill="#EFFFF7" fill-opacity="0.14" />
    <rect x="1170" y="312" width="120" height="12" rx="6" fill="#EFFFF7" fill-opacity="0.1" />
    <path d="M1176 346H1288" stroke="url(#line)" stroke-width="10" stroke-linecap="round" />
    <circle cx="1188" cy="346" r="10" fill="#4BF0A8" />
    <circle cx="1242" cy="346" r="10" fill="#43E2A1" />
    <circle cx="1288" cy="346" r="10" fill="#A3E560" />

    <rect x="1140" y="400" width="182" height="274" rx="28" fill="rgba(11, 29, 22, 0.92)" stroke="rgba(97, 233, 171, 0.12)" />
    <rect x="1170" y="438" width="90" height="14" rx="7" fill="#EFFFF7" fill-opacity="0.14" />
    <rect x="1170" y="470" width="122" height="12" rx="6" fill="#EFFFF7" fill-opacity="0.1" />
    <rect x="1170" y="510" width="116" height="70" rx="20" fill="rgba(68, 229, 161, 0.08)" stroke="rgba(68, 229, 161, 0.18)" />
    <rect x="1192" y="536" width="72" height="10" rx="5" fill="#EFFFF7" fill-opacity="0.14" />
    <rect x="1170" y="602" width="102" height="14" rx="7" fill="#9AE95F" fill-opacity="0.24" />

    <path d="M555 700C658 620 748 576 835 570C924 564 1033 610 1174 694" stroke="url(#line)" stroke-width="6" stroke-linecap="round" stroke-opacity="0.8" />
    <circle cx="556" cy="700" r="14" fill="#4CF0A8" />
    <circle cx="836" cy="570" r="14" fill="#47E0A1" />
    <circle cx="1174" cy="694" r="14" fill="#A3E560" />

    <rect x="352" y="726" width="182" height="78" rx="24" fill="rgba(29, 108, 181, 0.08)" stroke="rgba(29, 108, 181, 0.18)" />
    <rect x="574" y="726" width="182" height="78" rx="24" fill="rgba(34, 205, 162, 0.08)" stroke="rgba(34, 205, 162, 0.18)" />
    <rect x="796" y="726" width="232" height="78" rx="24" fill="rgba(163, 229, 96, 0.08)" stroke="rgba(163, 229, 96, 0.18)" />
    <rect x="1082" y="726" width="184" height="78" rx="24" fill="rgba(29, 108, 181, 0.08)" stroke="rgba(29, 108, 181, 0.18)" />

    <rect x="388" y="758" width="92" height="14" rx="7" fill="#EFFFF7" fill-opacity="0.14" />
    <rect x="610" y="758" width="102" height="14" rx="7" fill="#EFFFF7" fill-opacity="0.14" />
    <rect x="830" y="758" width="144" height="14" rx="7" fill="#EFFFF7" fill-opacity="0.14" />
    <rect x="1112" y="758" width="102" height="14" rx="7" fill="#EFFFF7" fill-opacity="0.14" />
  </g>

  <rect width="1600" height="1100" rx="78" fill="#FFFFFF" filter="url(#grain)" opacity="0.1" />
</svg>
